#Comment line ignore any data following # character 
#Hierarchical Translation and Rotation (.htr) file 
[Header]	
#Header keywords are followed by a single value 
FileType HTR		#Single word string
DataType HTRS		#Translation followed by rotation and scale data
FileVersion 1		#integer
NumSegments 64		#integer
NumFrames 3		#integer
DataFrameRate 30		#integer, data frame rate in this file
EulerRotationOrder ZYX
CalibrationUnits mm
RotationUnits Degrees
GlobalAxisofGravity Y
BoneLengthAxis Y
ScaleFactor 1.00
[SegmentNames&Hierarchy]
#CHILD	PARENT
Pinger_Root GLOBAL
Pelvis Pinger_Root
L_Hip Pelvis
R_Hip Pelvis
Rear_Leg01 Pelvis
Spine1 Pelvis
L_Leg01 L_Hip
L_Leg02 L_Leg01
L_Leg03 L_Leg02
L_Foot L_Leg03
L_Toe1_01 L_Foot
L_Toe2_01 L_Foot
L_Toe3_01 L_Foot
planeAlignerLeft L_Foot
L_Toe1_02 L_Toe1_01
L_Toe1_03 L_Toe1_02
L_Toe2_02 L_Toe2_01
L_Toe2_03 L_Toe2_02
L_Toe3_02 L_Toe3_01
L_Toe3_03 L_Toe3_02
planeLockWeightLeft planeAlignerLeft
R_Leg01 R_Hip
R_Leg02 R_Leg01
R_Leg03 R_Leg02
R_Foot R_Leg03
planeAlignerRight R_Foot
R_Toe1_01 R_Foot
R_Toe2_01 R_Foot
R_Toe3_01 R_Foot
planeLockWeightRight planeAlignerRight
R_Toe1_02 R_Toe1_01
R_Toe1_03 R_Toe1_02
R_Toe2_02 R_Toe2_01
R_Toe2_03 R_Toe2_02
R_Toe3_02 R_Toe3_01
R_Toe3_03 R_Toe3_02
Rear_Leg02 Rear_Leg01
Rear_Leg03 Rear_Leg02
Rear_Leg04 Rear_Leg03
Rear_Foot Rear_Leg04
planeAlignerCenter Rear_Foot
Rear_Toe1_01 Rear_Foot
Rear_Toe2_01 Rear_Foot
Rear_Toe3_01 Rear_Foot
planeLockWeightCenter planeAlignerCenter
Rear_Toe1_02 Rear_Toe1_01
Rear_Toe1_03 Rear_Toe1_02
Rear_Toe2_02 Rear_Toe2_01
Rear_Toe2_03 Rear_Toe2_02
Rear_Toe3_02 Rear_Toe3_01
Rear_Toe3_03 Rear_Toe3_02
Back_Bone Spine1
Head Spine1
Motor_Bone Back_Bone
Ping_Mechanism Back_Bone
BN_LookIK Head
bottomMouth Head
L_Mouth01 Head
L_mouthFront Head
mouthGun Head
R_Mouth01 Head
R_mouthFront Head
TopMouth Head
weapon_bone Head
[BasePosition]
#SegmentName Tx, Ty, Tz, Rx, Ry, Rz, BoneLength
Pinger_Root 0.000000 0.000000 0.000000 -90.000000 0.000000 0.000000 10.000000 
Pelvis 0.000000 0.000000 0.000000 0.000000 0.000000 0.000000 10.000000 
L_Hip 0.000000 0.000000 0.000000 0.000000 0.000000 0.000000 10.000000 
R_Hip 0.000000 0.000000 0.000000 0.000000 0.000000 0.000000 10.000000 
Rear_Leg01 0.000000 0.000000 0.000000 0.000000 0.000000 0.000000 10.000000 
Spine1 0.000000 0.000000 0.000000 0.000000 0.000000 0.000000 10.000000 
L_Leg01 0.000000 0.000000 0.000000 0.000000 0.000000 0.000000 10.000000 
L_Leg02 0.000000 0.000000 0.000000 0.000000 0.000000 0.000000 10.000000 
L_Leg03 0.000000 0.000000 0.000000 0.000000 0.000000 0.000000 10.000000 
L_Foot 0.000000 0.000000 0.000000 0.000000 0.000000 0.000000 10.000000 
L_Toe1_01 0.000000 0.000000 0.000000 0.000000 0.000000 0.000000 10.000000 
L_Toe2_01 0.000000 0.000000 0.000000 0.000000 0.000000 0.000000 10.000000 
L_Toe3_01 0.000000 0.000000 0.000000 0.000000 0.000000 0.000000 10.000000 
planeAlignerLeft 0.000000 0.000000 0.000000 0.000000 0.000000 0.000000 10.000000 
L_Toe1_02 0.000000 0.000000 0.000000 0.000000 0.000000 0.000000 10.000000 
L_Toe1_03 0.000000 0.000000 0.000000 0.000000 0.000000 0.000000 10.000000 
L_Toe2_02 0.000000 0.000000 0.000000 0.000000 0.000000 0.000000 10.000000 
L_Toe2_03 0.000000 0.000000 0.000000 0.000000 0.000000 0.000000 10.000000 
L_Toe3_02 0.000000 0.000000 0.000000 0.000000 0.000000 0.000000 10.000000 
L_Toe3_03 0.000000 0.000000 0.000000 0.000000 0.000000 0.000000 10.000000 
planeLockWeightLeft 0.000000 0.000000 0.000000 0.000000 0.000000 0.000000 10.000000 
R_Leg01 0.000000 0.000000 0.000000 0.000000 0.000000 0.000000 10.000000 
R_Leg02 0.000000 0.000000 0.000000 0.000000 0.000000 0.000000 10.000000 
R_Leg03 0.000000 0.000000 0.000000 0.000000 0.000000 0.000000 10.000000 
R_Foot 0.000000 0.000000 0.000000 0.000000 0.000000 0.000000 10.000000 
planeAlignerRight 0.000000 0.000000 0.000000 0.000000 0.000000 0.000000 10.000000 
R_Toe1_01 0.000000 0.000000 0.000000 0.000000 0.000000 0.000000 10.000000 
R_Toe2_01 0.000000 0.000000 0.000000 0.000000 0.000000 0.000000 10.000000 
R_Toe3_01 0.000000 0.000000 0.000000 0.000000 0.000000 0.000000 10.000000 
planeLockWeightRight 0.000000 0.000000 0.000000 0.000000 0.000000 0.000000 10.000000 
R_Toe1_02 0.000000 0.000000 0.000000 0.000000 0.000000 0.000000 10.000000 
R_Toe1_03 0.000000 0.000000 0.000000 0.000000 0.000000 0.000000 10.000000 
R_Toe2_02 0.000000 0.000000 0.000000 0.000000 0.000000 0.000000 10.000000 
R_Toe2_03 0.000000 0.000000 0.000000 0.000000 0.000000 0.000000 10.000000 
R_Toe3_02 0.000000 0.000000 0.000000 0.000000 0.000000 0.000000 10.000000 
R_Toe3_03 0.000000 0.000000 0.000000 0.000000 0.000000 0.000000 10.000000 
Rear_Leg02 0.000000 0.000000 0.000000 0.000000 0.000000 0.000000 10.000000 
Rear_Leg03 0.000000 0.000000 0.000000 0.000000 0.000000 0.000000 10.000000 
Rear_Leg04 0.000000 0.000000 0.000000 0.000000 0.000000 0.000000 10.000000 
Rear_Foot 0.000000 0.000000 0.000000 0.000000 0.000000 0.000000 10.000000 
planeAlignerCenter 0.000000 0.000000 0.000000 0.000000 0.000000 0.000000 10.000000 
Rear_Toe1_01 0.000000 0.000000 0.000000 0.000000 0.000000 0.000000 10.000000 
Rear_Toe2_01 0.000000 0.000000 0.000000 0.000000 0.000000 0.000000 10.000000 
Rear_Toe3_01 0.000000 0.000000 0.000000 0.000000 0.000000 0.000000 10.000000 
planeLockWeightCenter 0.000000 0.000000 0.000000 0.000000 0.000000 0.000000 10.000000 
Rear_Toe1_02 0.000000 0.000000 0.000000 0.000000 0.000000 0.000000 10.000000 
Rear_Toe1_03 0.000000 0.000000 0.000000 0.000000 0.000000 0.000000 10.000000 
Rear_Toe2_02 0.000000 0.000000 0.000000 0.000000 0.000000 0.000000 10.000000 
Rear_Toe2_03 0.000000 0.000000 0.000000 0.000000 0.000000 0.000000 10.000000 
Rear_Toe3_02 0.000000 0.000000 0.000000 0.000000 0.000000 0.000000 10.000000 
Rear_Toe3_03 0.000000 0.000000 0.000000 0.000000 0.000000 0.000000 10.000000 
Back_Bone 0.000000 0.000000 0.000000 0.000000 0.000000 0.000000 10.000000 
Head 0.000000 0.000000 0.000000 0.000000 0.000000 0.000000 10.000000 
Motor_Bone 0.000000 0.000000 0.000000 0.000000 0.000000 0.000000 10.000000 
Ping_Mechanism 0.000000 0.000000 0.000000 0.000000 0.000000 0.000000 10.000000 
BN_LookIK 0.000000 0.000000 0.000000 0.000000 0.000000 0.000000 10.000000 
bottomMouth 0.000000 0.000000 0.000000 0.000000 0.000000 0.000000 10.000000 
L_Mouth01 0.000000 0.000000 0.000000 0.000000 0.000000 0.000000 10.000000 
L_mouthFront 0.000000 0.000000 0.000000 0.000000 0.000000 0.000000 10.000000 
mouthGun 0.000000 0.000000 0.000000 0.000000 0.000000 0.000000 10.000000 
R_Mouth01 0.000000 0.000000 0.000000 0.000000 0.000000 0.000000 10.000000 
R_mouthFront 0.000000 0.000000 0.000000 0.000000 0.000000 0.000000 10.000000 
TopMouth 0.000000 0.000000 0.000000 0.000000 0.000000 0.000000 10.000000 
weapon_bone 0.000000 0.000000 0.000000 0.000000 0.000000 0.000000 10.000000 
#Beginning of Data. Separated by tabs
#Fr	Tx	Ty	Tz	Rx	Ry	Rz	SF
[Pinger_Root]
71 -0.000020 -2500.000000 0.000000 -0.000075 -0.000000 -0.000020 2500.000000
72 -0.000020 -2500.000000 0.000000 -0.000075 -0.000000 -0.000020 2500.000000
73 -0.000020 -2500.000000 0.000000 -0.000075 -0.000000 -0.000020 2500.000000
[Pelvis]
71 68.245041 953.291626 4390.604492 -78.220573 -78.087563 72.336288 4493.420898
72 68.304405 947.401184 4402.696777 -80.111153 -79.901939 73.738235 4503.995117
73 68.363792 941.510681 4414.788574 -82.652084 -81.292953 75.972313 4514.584961
[L_Hip]
71 5.766392 125.831482 872.656799 159.774231 -50.660999 119.947128 881.701050
72 5.766392 125.831482 872.656799 159.813553 -49.741684 120.368080 881.701050
73 5.766392 125.831482 872.656799 159.862381 -48.822739 120.782181 881.701050
[R_Hip]
71 5.765438 125.836372 -872.654907 37.644581 54.555107 124.806091 881.699829
72 5.765438 125.836372 -872.654907 37.743729 53.773724 124.967545 881.699829
73 5.765438 125.836372 -872.654907 37.837379 52.992168 125.123764 881.699829
[Rear_Leg01]
71 -192.298416 -925.602966 -0.001907 172.481644 4.620729 -165.037582 945.367432
72 -192.298416 -925.602966 -0.001907 171.880569 4.179503 -163.737946 945.367432
73 -192.298416 -925.602966 -0.001907 171.270035 3.752079 -162.434677 945.367432
[Spine1]
71 290.604584 5.007505 0.000477 4.439785 -3.211049 12.184901 290.647736
72 290.604584 5.007505 0.000477 5.125410 -2.687443 13.775970 290.647736
73 290.604584 5.007505 0.000477 5.626014 -2.172754 14.992925 290.647736
[L_Leg01]
71 761.932007 -0.002384 -0.069261 20.434948 -22.861406 -16.905359 761.932068
72 761.932007 -0.002384 -0.069261 21.165565 -20.945040 -16.249983 761.932068
73 761.932007 -0.002384 -0.069261 21.657616 -19.599215 -15.233165 761.932068
[L_Leg02]
71 1441.140503 -0.000954 -0.000715 2.446448 -0.067608 -120.079483 1441.140503
72 1441.140503 -0.000954 -0.000715 2.468530 -0.076470 -121.167145 1441.140503
73 1441.140503 -0.000954 -0.000715 2.490693 -0.091650 -122.376884 1441.140503
[L_Leg03]
71 1686.963989 -0.000715 -0.000954 -0.038506 0.018061 121.320976 1686.963989
72 1686.963989 -0.000715 -0.000954 -0.037424 0.017659 121.049957 1686.963989
73 1686.963989 -0.000715 -0.000954 -0.036340 0.017261 120.778931 1686.963989
[L_Foot]
71 3041.570068 -30.715107 11.297464 1.671075 12.036791 50.082928 3041.746094
72 3041.570068 -30.715107 11.297464 1.702563 12.206690 50.868370 3041.746094
73 3041.570068 -30.715107 11.297464 1.736453 12.376157 51.654453 3041.746094
[L_Toe1_01]
71 -188.216690 -224.732346 -21.137953 93.168121 -6.284743 -172.169739 293.899567
72 -188.216690 -224.732346 -21.137953 93.260963 -6.374612 -172.182404 293.899567
73 -188.216690 -224.732346 -21.137953 93.353813 -6.464456 -172.195206 293.899567
[L_Toe2_01]
71 200.746536 -219.926590 148.838394 -88.970123 -24.731068 -49.339409 332.896027
72 200.746536 -219.926590 148.838394 -89.193787 -25.032532 -49.884258 332.896027
73 200.746536 -219.926590 148.838394 -89.414795 -25.335865 -50.429073 332.896027
[L_Toe3_01]
71 188.832520 -219.859131 -191.078659 -100.825821 16.273598 -62.526176 347.140900
72 188.832520 -219.859131 -191.078659 -100.665939 15.872893 -63.346481 347.140900
73 188.832520 -219.859131 -191.078659 -100.500427 15.474441 -64.166351 347.140900
[planeAlignerLeft]
71 46.971806 -564.540405 83.003548 169.280319 -78.328247 91.547165 572.539734
72 45.052685 -568.500977 85.606514 169.290421 -78.006897 91.291504 576.672852
73 43.133556 -572.461609 88.209435 169.293518 -77.685440 91.042625 580.821594
[L_Toe1_02]
71 413.761139 0.000477 0.000000 0.001384 -25.953226 0.001384 413.761139
72 413.761139 0.000477 0.000000 0.001384 -25.959196 0.001384 413.761139
73 413.761139 0.000477 0.000000 0.001384 -25.965166 0.001384 413.761139
[L_Toe1_03]
71 464.317322 0.000358 -0.000089 0.004001 55.882229 0.004001 464.317322
72 464.317322 0.000358 -0.000089 0.003968 55.586926 0.003968 464.317322
73 464.317322 0.000358 -0.000089 0.003935 55.291607 0.003935 464.317322
[L_Toe2_02]
71 342.235809 -0.000477 0.000238 0.001186 -73.573570 0.001186 342.235809
72 342.235809 -0.000477 0.000238 0.001186 -73.421967 0.001186 342.235809
73 342.235809 -0.000477 0.000238 0.001186 -73.270340 0.001186 342.235809
[L_Toe2_03]
71 420.210846 -0.000715 0.000000 -0.040869 88.316116 -0.037371 420.210846
72 420.210846 -0.000715 0.000000 -0.032233 87.838882 -0.028735 420.210846
73 420.210846 -0.000715 0.000000 -0.026720 87.361961 -0.023222 420.210846
[L_Toe3_02]
71 329.270111 0.000954 0.000000 0.001177 -81.621689 0.001177 329.270111
72 329.270111 0.000954 0.000000 0.001177 -81.496284 0.001177 329.270111
73 329.270111 0.000954 0.000000 0.001177 -81.370926 0.001177 329.270111
[L_Toe3_03]
71 439.137451 -0.001907 0.000954 -179.997620 74.081848 -179.994080 439.137451
72 439.137451 -0.001907 0.000954 -179.997437 74.752640 -179.993896 439.137451
73 439.137451 -0.001907 0.000954 -179.997238 75.423309 -179.993713 439.137451
[planeLockWeightLeft]
71 1000.000366 -0.000223 -0.000095 -0.011826 -0.004376 0.005620 1000.000366
72 1000.000366 -0.000231 -0.000095 -0.011826 -0.004376 0.005620 1000.000366
73 1000.000366 -0.000239 -0.000095 -0.011826 -0.004376 0.005620 1000.000366
[R_Leg01]
71 761.455627 -0.001907 -0.000358 127.059944 -8.116653 34.117359 761.455688
72 761.455627 -0.001907 -0.000358 125.676262 -7.476706 35.018749 761.455688
73 761.455627 -0.001907 -0.000358 124.599129 -7.199969 35.589745 761.455688
[R_Leg02]
71 1441.140625 0.000000 -0.000238 -1.789625 -0.482900 -115.187523 1441.140625
72 1441.140625 0.000000 -0.000238 -1.674657 -0.396411 -114.613564 1441.140625
73 1441.140625 0.000000 -0.000238 -1.575951 -0.340144 -114.439285 1441.140625
[R_Leg03]
71 1686.963989 0.000954 0.001431 0.102101 -0.057941 137.908737 1686.963989
72 1686.963989 0.000954 0.001431 0.096973 -0.053699 136.567444 1686.963989
73 1686.963989 0.000954 0.001431 0.091750 -0.049581 135.227081 1686.963989
[R_Foot]
71 3041.560059 -30.531288 -11.204481 -0.944373 -18.907408 51.883904 3041.734131
72 3041.560059 -30.531288 -11.204481 -0.948554 -19.733515 52.226810 3041.734131
73 3041.560059 -30.531288 -11.204481 -0.958038 -20.559532 52.571602 3041.734131
[planeAlignerRight]
71 -127.139389 -574.033203 -312.907257 -36.583759 -71.418259 -64.296967 666.025146
72 -127.140327 -574.031799 -312.906830 -36.583092 -71.410309 -64.301643 666.023926
73 -127.141251 -574.030334 -312.906403 -36.582417 -71.402405 -64.306396 666.022644
[R_Toe1_01]
71 -188.383347 -224.864899 21.052242 76.129715 -0.475512 -172.714188 294.101532
72 -188.383347 -224.864899 21.052242 76.193108 -0.469428 -172.715668 294.101532
73 -188.383347 -224.864899 21.052242 76.256485 -0.463341 -172.717148 294.101532
[R_Toe2_01]
71 200.637817 -220.002121 -148.787384 -93.227234 32.390125 -59.160286 332.857574
72 200.637817 -220.002121 -148.787384 -92.984459 32.469147 -59.165039 332.857574
73 200.637817 -220.002121 -148.787384 -92.741470 32.548161 -59.169376 332.857574
[R_Toe3_01]
71 188.606735 -220.092957 191.126343 -72.146530 -8.144753 -73.643463 347.192566
72 188.606735 -220.092957 191.126343 -72.335548 -8.183798 -73.663757 347.192566
73 188.606735 -220.092957 191.126343 -72.524590 -8.222907 -73.683922 347.192566
[planeLockWeightRight]
71 999.999939 0.000250 -0.000421 -0.011823 -0.004379 -0.000027 999.999939
72 999.999939 0.000255 -0.000423 -0.011823 -0.004379 -0.000027 999.999939
73 999.999939 0.000261 -0.000425 -0.011823 -0.004379 -0.000027 999.999939
[R_Toe1_02]
71 413.762085 0.000477 -0.000119 0.001394 -24.665104 0.001394 413.762085
72 413.762085 0.000477 -0.000119 0.001394 -24.664541 0.001394 413.762085
73 413.762085 0.000477 -0.000119 0.001394 -24.663980 0.001394 413.762085
[R_Toe1_03]
71 464.317810 0.000000 0.001088 0.006616 69.563271 0.006616 464.317810
72 464.317810 0.000000 0.001088 0.006617 69.566254 0.006617 464.317810
73 464.317810 0.000000 0.001088 0.006618 69.569290 0.006618 464.317810
[R_Toe2_02]
71 342.234741 -0.000954 0.000238 0.001197 -67.217545 0.001197 342.234741
72 342.234741 -0.000954 0.000238 0.001197 -67.217918 0.001197 342.234741
73 342.234741 -0.000954 0.000238 0.001197 -67.218300 0.001197 342.234741
[R_Toe2_03]
71 420.210846 0.000715 -0.000268 0.008231 73.605896 0.008231 420.210846
72 420.210846 0.000715 -0.000268 0.008232 73.606514 0.008232 420.210846
73 420.210846 0.000715 -0.000268 0.008232 73.607140 0.008232 420.210846
[R_Toe3_02]
71 329.270355 -0.000477 -0.000954 0.001184 -74.470352 0.001184 329.270355
72 329.270355 -0.000477 -0.000954 0.001184 -74.475197 0.001184 329.270355
73 329.270355 -0.000477 -0.000954 0.001184 -74.480011 0.001184 329.270355
[R_Toe3_03]
71 439.137939 0.000238 0.001431 -0.011423 83.186401 -0.007920 439.137939
72 439.137939 0.000238 0.001431 -0.011439 83.197838 -0.007936 439.137939
73 439.137939 0.000238 0.001431 -0.011455 83.209160 -0.007953 439.137939
[Rear_Leg02]
71 1162.777710 -0.029802 0.005960 -0.178151 -7.931149 -108.307869 1162.777710
72 1162.777710 -0.029802 0.005960 -0.024935 -7.346998 -109.905869 1162.777710
73 1162.777710 -0.029802 0.005960 0.111569 -6.759100 -111.499588 1162.777710
[Rear_Leg03]
71 607.192505 -0.013351 -0.073195 0.006559 -0.001833 59.437317 607.192505
72 607.192505 -0.013351 -0.073195 0.006550 -0.001864 59.979839 607.192505
73 607.192505 -0.013351 -0.073195 0.006542 -0.001895 60.522396 607.192505
[Rear_Leg04]
71 995.874512 -0.020504 -0.011921 -0.039197 -0.018314 49.186245 995.874573
72 995.874512 -0.020504 -0.011921 -0.039318 -0.018050 49.954571 995.874573
73 995.874512 -0.020504 -0.011921 -0.039436 -0.017785 50.722832 995.874573
[Rear_Foot]
71 3096.176270 -0.067472 -0.041425 -135.018402 80.935081 60.580807 3096.176270
72 3096.176270 -0.067472 -0.041425 -134.841217 81.582474 60.600712 3096.176270
73 3096.176270 -0.067472 -0.041425 -134.647629 82.229683 60.636959 3096.176270
[planeAlignerCenter]
71 19.332121 -142.653717 -659.336060 10.585888 -0.001500 179.998184 674.868713
72 22.130363 -148.773865 -670.959045 10.816942 -0.001496 179.998184 687.611450
73 21.406183 -148.126251 -682.111694 11.047997 -0.001492 179.998184 698.338013
[Rear_Toe1_01]
71 0.653352 83.966492 -371.173737 -0.414679 28.733278 89.174927 380.553192
72 0.653352 83.966492 -371.173737 -0.438948 29.880518 89.146240 380.553192
73 0.653352 83.966492 -371.173737 -0.464162 31.027742 89.116661 380.553192
[Rear_Toe2_01]
71 178.200760 -294.826019 -362.060547 -6.765831 25.659708 -67.747398 499.765686
72 178.200760 -294.826019 -362.060547 -6.927740 25.452147 -67.734291 499.765686
73 178.200760 -294.826019 -362.060547 -7.090539 25.782536 -67.799095 499.765686
[Rear_Toe3_01]
71 -153.359680 -308.780914 -362.060852 3.454850 24.607620 -109.327911 499.952881
72 -153.359680 -308.780914 -362.060852 3.559187 24.512480 -109.098167 499.952881
73 -153.359680 -308.780914 -362.060852 3.631814 24.806759 -109.131172 499.952881
[planeLockWeightCenter]
71 1000.000122 0.000305 -0.000118 -0.011814 -0.004373 -0.000015 1000.000122
72 1000.000122 0.000305 -0.000118 -0.011814 -0.004373 -0.000015 1000.000122
73 1000.000122 0.000305 -0.000118 -0.011814 -0.004373 -0.000015 1000.000122
[Rear_Toe1_02]
71 379.707825 0.194073 0.000477 -0.002645 -32.845551 -0.002645 379.707855
72 379.707825 0.194073 0.000477 -0.002644 -32.945229 -0.002644 379.707855
73 379.707825 0.194073 0.000477 -0.002643 -33.044914 -0.002643 379.707855
[Rear_Toe1_03]
71 500.129700 0.165701 0.000119 -179.899887 89.330025 -179.903381 500.129761
72 500.129700 0.165701 0.000119 0.000000 89.841743 -0.003495 500.129761
73 500.129700 0.165701 0.000119 -0.049347 88.710472 -0.052844 500.129761
[Rear_Toe2_02]
71 340.494507 0.000238 -0.000954 0.001249 -49.905109 0.001249 340.494507
72 340.494507 0.000238 -0.000954 0.001255 -48.507145 0.001255 340.494507
73 340.494507 0.000238 -0.000954 0.001254 -48.680714 0.001254 340.494507
[Rear_Toe2_03]
71 433.103577 0.000000 0.000238 -0.003376 44.233276 0.000420 433.103546
72 433.103577 0.000000 0.000238 -0.003342 42.721134 0.000475 433.103546
73 433.103577 0.000000 0.000238 -0.003346 42.906990 0.000468 433.103546
[Rear_Toe3_02]
71 340.494141 -0.000358 -0.000477 -0.002490 -47.947002 -0.002490 340.494171
72 340.494141 -0.000358 -0.000477 -0.002498 -46.809437 -0.002498 340.494171
73 340.494141 -0.000358 -0.000477 -0.002498 -46.895653 -0.002498 340.494171
[Rear_Toe3_03]
71 433.103577 0.001431 -0.000238 0.000495 42.173927 -0.003332 433.103546
72 433.103577 0.001431 -0.000238 0.000539 40.889343 -0.003305 433.103546
73 433.103577 0.001431 -0.000238 0.000536 40.979034 -0.003307 433.103546
[Back_Bone]
71 1312.175781 -701.934692 0.000954 -1.020291 -3.528540 -86.115685 1488.125488
72 1312.175781 -701.934692 0.000954 -0.851160 -3.488607 -85.964066 1488.125488
73 1312.175781 -701.934692 0.000954 -0.518447 -3.162827 -85.890198 1488.125488
[Head]
71 1406.159424 809.709290 0.001431 0.262850 -1.067612 7.511422 1622.625488
72 1406.159424 809.709290 0.001431 0.205203 -1.150085 7.571876 1622.625488
73 1406.159424 809.709290 0.001431 0.147469 -1.232495 7.632411 1622.625488
[Motor_Bone]
71 1158.364380 -417.834747 0.000477 -5.513447 1.191204 -104.796608 1231.419434
72 1158.364380 -417.834747 0.000477 -3.495623 0.584029 -105.401451 1231.419434
73 1158.364380 -417.834747 0.000477 0.251712 -0.541767 -106.527855 1231.419434
[Ping_Mechanism]
71 1270.222656 -453.679260 13.809577 0.000103 -0.000053 82.120995 1348.881470
72 1261.752930 -451.808502 11.190566 0.000103 -0.000053 82.120995 1340.252441
73 1256.007935 -449.897705 8.623815 0.000103 -0.000053 82.120995 1334.180786
[BN_LookIK]
71 193.241119 1380.371704 -0.002861 0.000000 89.965736 -31.038179 1393.832153
72 193.241119 1380.371704 -0.002861 0.000000 89.965736 -31.038179 1393.832153
73 193.241119 1380.371704 -0.002861 0.000000 89.965736 -31.038179 1393.832153
[bottomMouth]
71 -435.092926 615.759399 -0.000954 -0.000022 0.000016 73.527184 753.966492
72 -435.092926 615.759399 -0.000954 -0.000022 0.000016 73.527184 753.966492
73 -435.092926 615.759399 -0.000954 -0.000022 0.000016 73.527184 753.966492
[L_Mouth01]
71 554.440979 7.658243 838.222046 150.204178 23.759130 109.605339 1005.027161
72 554.440979 7.658243 838.222046 150.204178 23.759130 109.605339 1005.027161
73 554.440979 7.658243 838.222046 150.204178 23.759130 109.605339 1005.027161
[L_mouthFront]
71 551.629089 934.514771 339.150421 0.000081 2.804060 79.119301 1136.941284
72 551.629089 934.514771 339.150421 0.000081 2.804060 79.119301 1136.941284
73 551.629089 934.514771 339.150421 0.000081 2.804060 79.119301 1136.941284
[mouthGun]
71 55.332661 1627.420898 0.000000 0.000023 0.000009 -11.038128 1628.361328
72 55.332661 1627.420898 0.000000 0.000023 0.000009 -11.038128 1628.361328
73 55.332661 1627.420898 0.000000 0.000023 0.000009 -11.038128 1628.361328
[R_Mouth01]
71 554.442383 7.659197 -838.223938 29.795891 -23.759109 109.605331 1005.029541
72 554.442383 7.659197 -838.223938 29.795891 -23.759109 109.605331 1005.029541
73 554.442383 7.659197 -838.223938 29.795891 -23.759109 109.605331 1005.029541
[R_mouthFront]
71 551.629089 934.514282 -339.151367 0.000029 -2.803930 79.119133 1136.941162
72 551.629089 934.514282 -339.151367 0.000029 -2.803930 79.119133 1136.941162
73 551.629089 934.514282 -339.151367 0.000029 -2.803930 79.119133 1136.941162
[TopMouth]
71 461.269867 -56.106091 -0.008583 -0.000059 -0.000268 92.025169 464.669525
72 461.269867 -56.106091 -0.008583 -0.000059 -0.000268 92.025169 464.669525
73 461.269867 -56.106091 -0.008583 -0.000059 -0.000268 92.025169 464.669525
[weapon_bone]
71 -987.239868 1448.372803 0.001431 0.000000 89.965736 -31.038221 1752.833740
72 -987.239868 1448.372803 0.001431 0.000000 89.965736 -31.038221 1752.833740
73 -987.239868 1448.372803 0.001431 0.000000 89.965736 -31.038221 1752.833740
